# xmcd
#
# Track frame offsets: 
#        150
#        26312
#        47963
#        73067
#        101041
#        124884
#        147907
#        175130
#        198874
#        222631
#
# Disc length: 3359 seconds
#
# Revision: 0
# Processed by: cddbd v1.5.2PL0 Copyright (c) Steve Scherf et al.
# Submitted via: ExactAudioCopy v0.99pb4
#
DISCID=980d1d0a
DTITLE=Canh Han - Cam Ly - Khi Nguoi Yeu Toi Khoc
DYEAR=1998
DGENRE=Vietnamese
TTITLE0=nu hon biet ly
TTITLE1=tieng sao chieu que
TTITLE2=khi nguoi yeu toi khoc
TTITLE3=ai mang di niem dau
TTITLE4=tieng mua roi
TTITLE5=hoa sen
TTITLE6=Da Lat hoang hon
TTITLE7=tuyet hong
TTITLE8=co phai em khong
TTITLE9=gui nguoi toi yeu
EXTD=
EXTT0=
EXTT1=
EXTT2=
EXTT3=
EXTT4=
EXTT5=
EXTT6=
EXTT7=
EXTT8=
EXTT9=
PLAYORDER=
